#N canvas 690 22 530 371 10;
#X floatatom 3 222 5 0 0 0 - - -;
#X obj 1 49 pink~;
#X obj -25 266 *~ 1;
#X obj -172 -42 pink~;
#X obj 16 22 bng 15 250 50 0 empty empty empty 17 7 0 10 -262144 -1
-1;
#X obj 39 70 vline~;
#X obj 3 71 *~;
#X obj 38 26 del 0.5;
#X obj -169 3 bng 15 250 50 0 empty empty empty 17 7 0 10 -262144 -1
-1;
#X obj -192 43 vline~;
#X obj -182 80 *~;
#X obj -142 5 del 0.4;
#X msg -187 24 0.4 0.1;
#X msg -133 25 0 0.1;
#X obj -251 -26 noise~;
#X obj -253 -6 snapshot~;
#X floatatom -253 13 5 0 0 0 - - -;
#X obj 16 -18 pink~;
#X msg 38 49 1 0.1;
#X msg 79 47 0 0.01;
#X obj 16 2 threshold~ 0.65 40 0 10;
#X obj -172 -19 threshold~ 0.65 40 0 110;
#X floatatom -237 40 5 0 0 0 - - -;
#X obj -252 66 bp~ 2000 3;
#X obj -25 244 bp~ 2200 3;
#X obj -180 234 *~ 1;
#X obj -182 256 outlet~;
#X connect 0 0 24 1;
#X connect 1 0 6 0;
#X connect 2 0 25 0;
#X connect 3 0 21 0;
#X connect 4 0 18 0;
#X connect 4 0 7 0;
#X connect 5 0 6 1;
#X connect 6 0 24 0;
#X connect 7 0 19 0;
#X connect 8 0 12 0;
#X connect 8 0 11 0;
#X connect 8 0 15 0;
#X connect 9 0 10 1;
#X connect 10 0 25 0;
#X connect 11 0 13 0;
#X connect 12 0 9 0;
#X connect 13 0 9 0;
#X connect 14 0 15 0;
#X connect 14 0 23 0;
#X connect 15 0 16 0;
#X connect 16 0 21 1;
#X connect 17 0 20 0;
#X connect 18 0 5 0;
#X connect 19 0 5 0;
#X connect 20 0 4 0;
#X connect 21 0 8 0;
#X connect 22 0 23 1;
#X connect 23 0 10 0;
#X connect 24 0 2 0;
#X connect 25 0 26 0;
