#N canvas 185 89 395 300 10;
#X obj 243 106 cos~;
#X floatatom 144 141 5 0 1 0 - - -;
#X floatatom 144 162 5 0 2 0 - - -;
#X obj 229 232 outlet~;
#X floatatom 107 122 5 0 0 0 - - -;
#X obj 240 187 *~ 0;
#X obj 242 159 sin~;
#X obj 237 49 pink~;
#X obj 117 37 loadbang;
#X obj 237 75 *~ 1;
#X obj 242 133 *~ 1;
#X msg 81 64 1;
#X obj 143 108 tgl 8 0 empty empty io 17 7 0 10 -262144 -1 -1 1 1;
#X msg 122 66 0.2;
#X obj 229 208 *~ 0;
#X msg 160 68 1.3;
#X connect 0 0 10 0;
#X connect 1 0 9 1;
#X connect 2 0 10 1;
#X connect 4 0 5 1;
#X connect 5 0 14 0;
#X connect 6 0 5 0;
#X connect 7 0 9 0;
#X connect 8 0 11 0;
#X connect 8 0 13 0;
#X connect 8 0 15 0;
#X connect 9 0 0 0;
#X connect 10 0 6 0;
#X connect 11 0 4 0;
#X connect 12 0 14 1;
#X connect 13 0 1 0;
#X connect 14 0 3 0;
#X connect 15 0 2 0;
#X coords 0 -1 1 1 80 80 1 100 100;
