#N canvas 85 86 676 538 10;
#X obj 304 209 pink~;
#X obj 232 335 clip~ -1 1;
#X obj 248 418 *~ 1;
#X obj 223 303 overdrive~ 20;
#X obj 120 198 pink~;
#X obj 329 395 *~ 1;
#X obj 517 400 thresh;
#X obj 390 421 delwrite~;
#X obj 144 222 delread~;
#X obj 199 274 clip~ -1 -0.7;
#X obj 371 260 overdrive~ 20;
#X floatatom 305 259 5 0 0 0 - - -;
#X obj 343 304 clip~ -0.5 0.1;
#X floatatom 508 235 5 0 0 0 - - -;
#X floatatom 254 246 5 0 0 0 - - -;
#X floatatom 166 376 5 0 0 0 - - -;
#X floatatom 169 323 5 0 0 0 - - -;
#X obj 245 364 bp~ 3300 2;
#X floatatom 163 414 5 0 0 0 - - -;
#X obj 344 333 bp~ 2200 2;
#X floatatom 480 295 5 0 0 0 - - -;
#X floatatom 503 325 5 0 0 0 - - -;
#X floatatom 463 226 5 0 0 0 - - -;
#X floatatom 311 331 5 0 0 0 - - -;
#X obj 206 246 *~ 4;
#X obj 347 235 *~ 1.5;
#X floatatom 283 394 5 0 0 0 - - -;
#X floatatom 248 220 5 0 0 0 - - -;
#X floatatom 314 288 5 0 0 0 - - -;
#X obj 184 444 overdrive~ 0.1;
#X floatatom 152 458 5 0 0 0 - - -;
#X obj 148 351 delwrite~ a;
#X obj 351 208 delread~ a;
#X floatatom 410 238 5 0 0 0 - - -;
#X msg 144 65 2.31;
#X msg 188 66 1.74;
#X msg 229 63 1.26;
#X obj 386 9 loadbang;
#X msg 273 63 3;
#X msg 310 64 -0.59;
#X msg 352 65 6.75;
#X msg 426 66 0.63;
#X msg 539 78 1.42;
#X msg 497 117 1.37;
#X msg 459 115 0.05;
#X msg 493 139 0.51;
#X msg 536 137 3.77;
#X obj 343 364 tanh~;
#X obj 243 388 tanh~;
#X msg 482 75 2500;
#X msg 392 63 3.5;
#X msg 537 112 4000;
#X obj 323 499 outlet~;
#X obj 317 435 *~;
#X obj 131 120 tgl 8 0 empty empty io 17 7 0 10 -262144 -1 -1 1 1;
#X floatatom 151 141 5 0 0 0 postgain - -;
#X msg 114 56 1;
#X obj 316 454 *~ 1;
#X connect 0 0 25 0;
#X connect 1 0 17 0;
#X connect 2 0 31 0;
#X connect 2 0 53 0;
#X connect 3 0 1 0;
#X connect 5 0 7 0;
#X connect 5 0 53 0;
#X connect 8 0 24 0;
#X connect 9 0 3 0;
#X connect 10 0 12 0;
#X connect 11 0 9 2;
#X connect 12 0 19 0;
#X connect 13 0 12 2;
#X connect 14 0 9 1;
#X connect 15 0 1 2;
#X connect 16 0 1 1;
#X connect 17 0 48 0;
#X connect 18 0 17 1;
#X connect 19 0 47 0;
#X connect 20 0 19 1;
#X connect 21 0 19 2;
#X connect 22 0 10 1;
#X connect 23 0 17 2;
#X connect 24 0 9 0;
#X connect 25 0 10 0;
#X connect 26 0 2 1;
#X connect 27 0 24 1;
#X connect 28 0 3 1;
#X connect 29 0 2 0;
#X connect 30 0 29 1;
#X connect 32 0 25 0;
#X connect 33 0 25 1;
#X connect 34 0 27 0;
#X connect 35 0 14 0;
#X connect 36 0 11 0;
#X connect 37 0 34 0;
#X connect 37 0 35 0;
#X connect 37 0 36 0;
#X connect 37 0 38 0;
#X connect 37 0 39 0;
#X connect 37 0 40 0;
#X connect 37 0 50 0;
#X connect 37 0 41 0;
#X connect 37 0 49 0;
#X connect 37 0 42 0;
#X connect 37 0 44 0;
#X connect 37 0 43 0;
#X connect 37 0 51 0;
#X connect 37 0 45 0;
#X connect 37 0 46 0;
#X connect 37 0 56 0;
#X connect 38 0 28 0;
#X connect 39 0 16 0;
#X connect 40 0 23 0;
#X connect 41 0 15 0;
#X connect 42 0 30 0;
#X connect 43 0 33 0;
#X connect 44 0 22 0;
#X connect 45 0 13 0;
#X connect 46 0 21 0;
#X connect 47 0 5 0;
#X connect 48 0 29 0;
#X connect 49 0 18 0;
#X connect 50 0 26 0;
#X connect 51 0 20 0;
#X connect 53 0 57 0;
#X connect 54 0 53 1;
#X connect 55 0 57 1;
#X connect 56 0 55 0;
#X connect 57 0 52 0;
#X coords 0 -1 1 1 85 60 1 100 100;
