#N canvas 647 233 450 300 10;
#X obj 228 94 *~ 1;
#X obj 227 201 outlet~;
#X floatatom 150 119 5 0 0 0 pregain - -;
#X obj 104 11 loadbang;
#X msg 135 77 1;
#X obj 153 103 tgl 8 0 empty empty io 17 7 0 10 -262144 -1 -1 1 1;
#X obj 219 172 *~ 0;
#X floatatom 292 79 5 0 0 0 - - -;
#X floatatom 354 99 5 0 0 0 - - -;
#X obj 228 133 svf~ 2000 0.5;
#X obj 228 59 pink~;
#X connect 0 0 9 0;
#X connect 2 0 0 1;
#X connect 3 0 4 0;
#X connect 4 0 2 0;
#X connect 5 0 6 1;
#X connect 6 0 1 0;
#X connect 7 0 9 1;
#X connect 8 0 9 2;
#X connect 9 1 6 0;
#X connect 10 0 0 0;
#X coords 0 -1 1 1 85 60 1 100 100;
