#N canvas 647 233 450 300 10;
#X floatatom 152 156 4 0 1 0 clip - -;
#X obj 228 94 *~ 1;
#X obj 267 118 * -1;
#X obj 227 155 clip~ -0.5 0.5;
#X obj 227 201 outlet~;
#X floatatom 153 136 5 0 0 0 pregain - -;
#X obj 104 11 loadbang;
#X msg 104 77 0.5;
#X msg 135 77 1;
#X obj 153 103 tgl 8 0 empty empty io 17 7 0 10 -262144 -1 -1 1 1;
#X obj 228 178 *~ 0;
#X obj 228 59 osc~ 60;
#X obj 115 116 tgl 8 0 empty empty 50/60hz 17 7 0 10 -262144 -1 -1
1 1;
#X obj 227 18 * 10;
#X obj 228 39 + 50;
#X connect 0 0 2 0;
#X connect 0 0 3 2;
#X connect 1 0 3 0;
#X connect 2 0 3 1;
#X connect 3 0 10 0;
#X connect 5 0 1 1;
#X connect 6 0 8 0;
#X connect 6 0 7 0;
#X connect 7 0 0 0;
#X connect 8 0 5 0;
#X connect 8 0 12 0;
#X connect 9 0 10 1;
#X connect 10 0 4 0;
#X connect 11 0 1 0;
#X connect 12 0 13 0;
#X connect 13 0 14 0;
#X connect 14 0 11 0;
#X coords 0 -1 1 1 85 80 1 100 100;
