#N canvas 602 120 676 364 10;
#X obj 76 186 output~;
#X obj 22 20 hum;
#X obj 116 20 crispy;
#X obj 237 34 crunch;
#X obj 231 102 clicks;
#X msg 50 276 start;
#X msg 46 298 stop;
#X obj 94 275 del 15;
#X obj 50 227 bng 15 250 50 0 empty empty empty 17 7 0 10 -262144 -1
-1;
#X obj 86 304 writesf~ 1;
#X msg 50 251 open static.wav;
#N canvas 0 0 450 300 (subpatch) 0;
#X array \$0-scope 100 float 0;
#X coords 0 1 99 -1 200 140 1;
#X restore 389 98 graph;
#X obj 200 212 tgl 15 0 empty empty empty 17 7 0 10 -262144 -1 -1 1
1;
#X obj 200 231 metro 100;
#X obj 159 231 *~ 1;
#X obj 103 142 *~ 0.1;
#X floatatom 170 137 5 0 0 0 - - -;
#X obj 277 123 hiss;
#X obj 105 162 hip~ 1;
#X obj 170 253 tabwrite~ \$0-scope;
#X connect 0 0 9 0;
#X connect 0 1 9 0;
#X connect 1 0 15 0;
#X connect 2 0 15 0;
#X connect 3 0 15 0;
#X connect 4 0 15 0;
#X connect 5 0 9 0;
#X connect 6 0 9 0;
#X connect 7 0 5 0;
#X connect 8 0 10 0;
#X connect 8 0 7 0;
#X connect 10 0 9 0;
#X connect 12 0 13 0;
#X connect 13 0 19 0;
#X connect 14 0 19 0;
#X connect 15 0 18 0;
#X connect 16 0 15 1;
#X connect 17 0 15 0;
#X connect 18 0 14 0;
#X connect 18 0 0 1;
#X connect 18 0 0 0;
